<mxfile host="65bd71144e">
    <diagram name="Страница 1" id="55mwgQ1KtyR7YRagaNMq">
        <mxGraphModel dx="1278" dy="315" grid="1" gridSize="10" guides="1" tooltips="1" connect="1" arrows="1" fold="1" page="1" pageScale="1" pageWidth="827" pageHeight="1169" math="0" shadow="0">
            <root>
                <mxCell id="0"/>
                <mxCell id="1" parent="0"/>
                <mxCell id="RfyV9sNuoVxRz6jdElQM-48" value="" style="rounded=0;whiteSpace=wrap;html=1;" parent="1" vertex="1">
                    <mxGeometry x="-40" y="340" width="120" height="60" as="geometry"/>
                </mxCell>
                <mxCell id="RfyV9sNuoVxRz6jdElQM-49" value="" style="rounded=0;whiteSpace=wrap;html=1;" parent="1" vertex="1">
                    <mxGeometry x="-30" y="350" width="120" height="60" as="geometry"/>
                </mxCell>
                <mxCell id="RfyV9sNuoVxRz6jdElQM-50" value="" style="rounded=0;whiteSpace=wrap;html=1;" parent="1" vertex="1">
                    <mxGeometry x="-20" y="360" width="120" height="60" as="geometry"/>
                </mxCell>
                <mxCell id="RfyV9sNuoVxRz6jdElQM-51" value="" style="rounded=0;whiteSpace=wrap;html=1;" parent="1" vertex="1">
                    <mxGeometry x="-10" y="370" width="120" height="60" as="geometry"/>
                </mxCell>
                <mxCell id="RfyV9sNuoVxRz6jdElQM-52" value="" style="rounded=0;whiteSpace=wrap;html=1;" parent="1" vertex="1">
                    <mxGeometry y="380" width="120" height="60" as="geometry"/>
                </mxCell>
                <mxCell id="RfyV9sNuoVxRz6jdElQM-43" value="" style="rounded=0;whiteSpace=wrap;html=1;" parent="1" vertex="1">
                    <mxGeometry x="10" y="390" width="120" height="60" as="geometry"/>
                </mxCell>
                <mxCell id="RfyV9sNuoVxRz6jdElQM-44" value="" style="rounded=0;whiteSpace=wrap;html=1;" parent="1" vertex="1">
                    <mxGeometry x="20" y="400" width="120" height="60" as="geometry"/>
                </mxCell>
                <mxCell id="RfyV9sNuoVxRz6jdElQM-45" value="" style="rounded=0;whiteSpace=wrap;html=1;" parent="1" vertex="1">
                    <mxGeometry x="30" y="410" width="120" height="60" as="geometry"/>
                </mxCell>
                <mxCell id="RfyV9sNuoVxRz6jdElQM-46" value="" style="rounded=0;whiteSpace=wrap;html=1;" parent="1" vertex="1">
                    <mxGeometry x="40" y="420" width="120" height="60" as="geometry"/>
                </mxCell>
                <mxCell id="RfyV9sNuoVxRz6jdElQM-47" value="" style="rounded=0;whiteSpace=wrap;html=1;" parent="1" vertex="1">
                    <mxGeometry x="50" y="430" width="120" height="60" as="geometry"/>
                </mxCell>
                <mxCell id="RfyV9sNuoVxRz6jdElQM-1" value="&lt;div style=&quot;&quot;&gt;&lt;b&gt;&lt;i&gt;СУБД&lt;/i&gt;&lt;br&gt;&lt;/b&gt;&lt;br&gt;&lt;/div&gt;&lt;div style=&quot;&quot;&gt;&lt;span style=&quot;background-color: initial;&quot;&gt;&lt;b&gt;MariaDB&lt;/b&gt;&lt;/span&gt;&lt;/div&gt;" style="shape=cylinder3;whiteSpace=wrap;html=1;boundedLbl=1;backgroundOutline=1;size=15;align=center;fillColor=#f5f5f5;fontColor=#333333;strokeColor=#666666;" parent="1" vertex="1">
                    <mxGeometry x="720" y="76.25" width="90" height="120" as="geometry"/>
                </mxCell>
                <mxCell id="RfyV9sNuoVxRz6jdElQM-2" value="&lt;div style=&quot;&quot;&gt;&lt;span style=&quot;background-color: initial;&quot;&gt;&lt;b style=&quot;&quot;&gt;&lt;i&gt;Backend&lt;/i&gt;&lt;/b&gt;&lt;br&gt;&lt;br&gt;&lt;/span&gt;&lt;/div&gt;&lt;div style=&quot;&quot;&gt;&lt;span style=&quot;background-color: initial;&quot;&gt;- Обработка запросов&lt;/span&gt;&lt;/div&gt;&amp;nbsp; - &lt;b&gt;FastAPI&lt;/b&gt;&lt;br&gt;&lt;br&gt;Работа с СУБД&lt;br&gt;&amp;nbsp;- &lt;b&gt;SQLAlchemy&lt;/b&gt;&lt;br&gt;&lt;br&gt;Работа с шаблонами&lt;br&gt;- &lt;b&gt;Jinja2&lt;/b&gt;" style="rounded=0;whiteSpace=wrap;html=1;align=left;fillColor=#f5f5f5;fontColor=#333333;strokeColor=#666666;spacingRight=0;spacing=10;" parent="1" vertex="1">
                    <mxGeometry x="510" y="56.875" width="150" height="158.75" as="geometry"/>
                </mxCell>
                <mxCell id="RfyV9sNuoVxRz6jdElQM-3" value="" style="endArrow=classic;startArrow=classic;html=1;rounded=0;entryX=0;entryY=0.5;entryDx=0;entryDy=0;entryPerimeter=0;exitX=1;exitY=0.5;exitDx=0;exitDy=0;" parent="1" source="RfyV9sNuoVxRz6jdElQM-2" target="RfyV9sNuoVxRz6jdElQM-1" edge="1">
                    <mxGeometry width="50" height="50" relative="1" as="geometry">
                        <mxPoint x="590" y="197.5" as="sourcePoint"/>
                        <mxPoint x="640" y="147.5" as="targetPoint"/>
                    </mxGeometry>
                </mxCell>
                <mxCell id="RfyV9sNuoVxRz6jdElQM-4" value="&lt;b style=&quot;font-style: italic;&quot;&gt;Frontend:WEB&lt;/b&gt;&lt;br&gt;&lt;br&gt;- Шаблон&lt;br&gt;&amp;nbsp;-&amp;nbsp;&lt;b&gt;themeforest:metronic&lt;/b&gt;&lt;br&gt;&lt;br&gt;- Обновление страницы:&lt;br&gt;&amp;nbsp; - &lt;b&gt;VUE/React&lt;/b&gt;" style="whiteSpace=wrap;html=1;align=left;rounded=0;fillColor=#f5f5f5;fontColor=#333333;strokeColor=#666666;spacing=10;" parent="1" vertex="1">
                    <mxGeometry x="-45" y="61.25" width="150" height="150" as="geometry"/>
                </mxCell>
                <mxCell id="RfyV9sNuoVxRz6jdElQM-9" style="edgeStyle=orthogonalEdgeStyle;rounded=0;orthogonalLoop=1;jettySize=auto;html=1;entryX=1;entryY=0.5;entryDx=0;entryDy=0;startArrow=none;startFill=1;" parent="1" source="RfyV9sNuoVxRz6jdElQM-11" target="RfyV9sNuoVxRz6jdElQM-4" edge="1">
                    <mxGeometry relative="1" as="geometry"/>
                </mxCell>
                <mxCell id="RfyV9sNuoVxRz6jdElQM-7" value="&lt;b&gt;&lt;i&gt;ReverseProxy&lt;/i&gt;&lt;br&gt;&lt;br&gt;NGINX&lt;br&gt;&lt;/b&gt;" style="ellipse;shape=cloud;whiteSpace=wrap;html=1;fillColor=#f5f5f5;fontColor=#333333;strokeColor=#666666;spacing=0;" parent="1" vertex="1">
                    <mxGeometry x="250" y="78.75" width="120" height="105" as="geometry"/>
                </mxCell>
                <mxCell id="RfyV9sNuoVxRz6jdElQM-10" value="" style="edgeStyle=orthogonalEdgeStyle;rounded=0;orthogonalLoop=1;jettySize=auto;html=1;entryX=1;entryY=0.5;entryDx=0;entryDy=0;startArrow=classic;startFill=1;endArrow=none;exitX=0.16;exitY=0.55;exitDx=0;exitDy=0;exitPerimeter=0;" parent="1" source="RfyV9sNuoVxRz6jdElQM-7" target="RfyV9sNuoVxRz6jdElQM-11" edge="1">
                    <mxGeometry relative="1" as="geometry">
                        <mxPoint x="310" y="140" as="sourcePoint"/>
                        <mxPoint x="200" y="140" as="targetPoint"/>
                    </mxGeometry>
                </mxCell>
                <mxCell id="RfyV9sNuoVxRz6jdElQM-11" value="&lt;b&gt;REST API&lt;/b&gt;" style="text;html=1;align=center;verticalAlign=middle;resizable=0;points=[];autosize=1;strokeColor=#666666;fillColor=#f5f5f5;fontColor=#333333;spacing=0;" parent="1" vertex="1">
                    <mxGeometry x="150" y="126.25" width="70" height="20" as="geometry"/>
                </mxCell>
                <mxCell id="RfyV9sNuoVxRz6jdElQM-23" style="edgeStyle=orthogonalEdgeStyle;rounded=0;orthogonalLoop=1;jettySize=auto;html=1;exitX=0;exitY=0.5;exitDx=0;exitDy=0;entryX=1;entryY=0.5;entryDx=0;entryDy=0;startArrow=classic;startFill=1;" parent="1" source="RfyV9sNuoVxRz6jdElQM-16" target="RfyV9sNuoVxRz6jdElQM-30" edge="1">
                    <mxGeometry relative="1" as="geometry">
                        <mxPoint x="600" y="470" as="targetPoint"/>
                        <Array as="points">
                            <mxPoint x="680" y="320"/>
                            <mxPoint x="680" y="480"/>
                        </Array>
                    </mxGeometry>
                </mxCell>
                <mxCell id="RfyV9sNuoVxRz6jdElQM-31" style="edgeStyle=orthogonalEdgeStyle;rounded=0;orthogonalLoop=1;jettySize=auto;html=1;exitX=0;exitY=0.75;exitDx=0;exitDy=0;entryX=0.5;entryY=1;entryDx=0;entryDy=0;entryPerimeter=0;startArrow=classic;startFill=1;" parent="1" source="RfyV9sNuoVxRz6jdElQM-16" target="RfyV9sNuoVxRz6jdElQM-1" edge="1">
                    <mxGeometry relative="1" as="geometry"/>
                </mxCell>
                <mxCell id="RfyV9sNuoVxRz6jdElQM-16" value="&lt;b&gt;&lt;i&gt;Worker:Balancer&lt;/i&gt;&lt;/b&gt;" style="triangle;whiteSpace=wrap;html=1;align=right;direction=west;spacing=10;fillColor=#f5f5f5;fontColor=#333333;strokeColor=#666666;" parent="1" vertex="1">
                    <mxGeometry x="510" y="280" width="150" height="80" as="geometry"/>
                </mxCell>
                <mxCell id="RfyV9sNuoVxRz6jdElQM-18" value="" style="rounded=0;whiteSpace=wrap;html=1;" parent="1" vertex="1">
                    <mxGeometry x="440" y="400" width="120" height="60" as="geometry"/>
                </mxCell>
                <mxCell id="RfyV9sNuoVxRz6jdElQM-26" value="" style="rounded=0;whiteSpace=wrap;html=1;" parent="1" vertex="1">
                    <mxGeometry x="450" y="410" width="120" height="60" as="geometry"/>
                </mxCell>
                <mxCell id="RfyV9sNuoVxRz6jdElQM-27" value="" style="rounded=0;whiteSpace=wrap;html=1;" parent="1" vertex="1">
                    <mxGeometry x="460" y="420" width="120" height="60" as="geometry"/>
                </mxCell>
                <mxCell id="RfyV9sNuoVxRz6jdElQM-28" value="" style="rounded=0;whiteSpace=wrap;html=1;" parent="1" vertex="1">
                    <mxGeometry x="470" y="430" width="120" height="60" as="geometry"/>
                </mxCell>
                <mxCell id="RfyV9sNuoVxRz6jdElQM-29" value="" style="rounded=0;whiteSpace=wrap;html=1;" parent="1" vertex="1">
                    <mxGeometry x="480" y="440" width="120" height="60" as="geometry"/>
                </mxCell>
                <mxCell id="RfyV9sNuoVxRz6jdElQM-53" style="edgeStyle=orthogonalEdgeStyle;orthogonalLoop=1;jettySize=auto;html=1;exitX=0;exitY=0.5;exitDx=0;exitDy=0;startArrow=classic;startFill=1;endArrow=ERoneToMany;endFill=0;startSize=14;endSize=18;fillColor=#f8cecc;strokeColor=#000000;rounded=0;" parent="1" source="RfyV9sNuoVxRz6jdElQM-30" target="RfyV9sNuoVxRz6jdElQM-40" edge="1">
                    <mxGeometry relative="1" as="geometry"/>
                </mxCell>
                <mxCell id="RfyV9sNuoVxRz6jdElQM-30" value="&lt;b&gt;&lt;i&gt;&lt;font color=&quot;#000000&quot;&gt;Worker&lt;/font&gt;&lt;/i&gt;&lt;/b&gt;" style="rounded=0;whiteSpace=wrap;html=1;fillColor=#f5f5f5;strokeColor=#666666;fontColor=#333333;" parent="1" vertex="1">
                    <mxGeometry x="490" y="450" width="120" height="60" as="geometry"/>
                </mxCell>
                <mxCell id="RfyV9sNuoVxRz6jdElQM-37" style="rounded=0;orthogonalLoop=1;jettySize=auto;html=1;exitX=0.875;exitY=0.5;exitDx=0;exitDy=0;exitPerimeter=0;entryX=0;entryY=0.5;entryDx=0;entryDy=0;startArrow=classic;startFill=1;" parent="1" source="RfyV9sNuoVxRz6jdElQM-33" target="RfyV9sNuoVxRz6jdElQM-2" edge="1">
                    <mxGeometry relative="1" as="geometry"/>
                </mxCell>
                <mxCell id="RfyV9sNuoVxRz6jdElQM-39" style="edgeStyle=orthogonalEdgeStyle;rounded=0;orthogonalLoop=1;jettySize=auto;html=1;entryX=0.4;entryY=0.1;entryDx=0;entryDy=0;entryPerimeter=0;startArrow=classic;startFill=1;exitX=0.4;exitY=0.1;exitDx=0;exitDy=0;exitPerimeter=0;" parent="1" source="RfyV9sNuoVxRz6jdElQM-33" target="RfyV9sNuoVxRz6jdElQM-7" edge="1">
                    <mxGeometry relative="1" as="geometry">
                        <Array as="points">
                            <mxPoint x="408" y="70"/>
                            <mxPoint x="298" y="70"/>
                        </Array>
                    </mxGeometry>
                </mxCell>
                <mxCell id="RfyV9sNuoVxRz6jdElQM-33" value="&lt;b&gt;&lt;i&gt;HTTP&lt;/i&gt;&lt;br&gt;&lt;br&gt;Gunicorn&lt;/b&gt;" style="ellipse;shape=cloud;whiteSpace=wrap;html=1;fillColor=#f5f5f5;fontColor=#333333;strokeColor=#666666;spacing=0;" parent="1" vertex="1">
                    <mxGeometry x="360" y="83.75" width="120" height="105" as="geometry"/>
                </mxCell>
                <mxCell id="RfyV9sNuoVxRz6jdElQM-42" value="" style="rounded=0;whiteSpace=wrap;html=1;" parent="1" vertex="1">
                    <mxGeometry x="60" y="440" width="120" height="60" as="geometry"/>
                </mxCell>
                <mxCell id="RfyV9sNuoVxRz6jdElQM-40" value="&lt;b&gt;&lt;i&gt;Telegram&lt;/i&gt;&lt;br&gt;&lt;br&gt;Pyrogram&lt;br&gt;&lt;/b&gt;" style="rounded=0;whiteSpace=wrap;html=1;fillColor=#f5f5f5;fontColor=#333333;strokeColor=#666666;" parent="1" vertex="1">
                    <mxGeometry x="70" y="450" width="120" height="60" as="geometry"/>
                </mxCell>
                <mxCell id="RfyV9sNuoVxRz6jdElQM-55" style="rounded=0;orthogonalLoop=1;jettySize=auto;html=1;exitX=1;exitY=0.5;exitDx=0;exitDy=0;entryX=0;entryY=0.75;entryDx=0;entryDy=0;startArrow=classic;startFill=1;edgeStyle=orthogonalEdgeStyle;" parent="1" source="RfyV9sNuoVxRz6jdElQM-16" target="RfyV9sNuoVxRz6jdElQM-2" edge="1">
                    <mxGeometry relative="1" as="geometry">
                        <mxPoint x="440" y="260" as="sourcePoint"/>
                        <mxPoint x="485" y="260" as="targetPoint"/>
                        <Array as="points">
                            <mxPoint x="470" y="320"/>
                            <mxPoint x="470" y="176"/>
                        </Array>
                    </mxGeometry>
                </mxCell>
            </root>
        </mxGraphModel>
    </diagram>
</mxfile>